<svg width="65" height="65" viewBox="0 0 65 65" fill="none" xmlns="http://www.w3.org/2000/svg">
<path fill-rule="evenodd" clip-rule="evenodd" d="M59.0677 3.84644C60.1109 3.84644 60.983 4.71853 60.983 5.76173V15.1505H4.12031V5.76173C4.12031 4.71853 4.9869 3.84644 6.03009 3.84644H59.0677ZM60.8119 18.8045V51.1492C60.983 52.5402 60.1109 53.2356 59.0677 53.2356H49.6789L47.7691 51.1492C47.9403 50.8015 48.288 50.106 48.4646 49.4106H51.2465C52.2897 49.4106 53.1563 48.5385 53.1563 47.4953V39.8451C53.1563 38.8019 52.2897 37.9298 51.2465 37.9298H48.4646C48.288 37.2344 47.9403 36.8867 47.7691 36.1912L49.6789 34.2814C50.3744 33.5859 50.3744 32.195 49.6789 31.6706L44.2918 26.1069C43.9441 25.8475 43.4639 25.715 42.9837 25.715C42.509 25.715 42.0288 25.8475 41.6811 26.1069L39.7657 28.1933C39.2469 28.0167 38.7225 27.6689 38.0271 27.4978V24.716C38.0271 23.4962 37.1605 22.6296 36.1173 22.6296H28.4672C27.424 22.6296 26.5519 23.4962 26.5519 24.716V27.4978C25.8564 27.6689 25.3376 27.8456 24.8132 28.1933L22.7268 26.1069C22.4674 25.8475 21.9872 25.715 21.4849 25.715C20.9882 25.715 20.4638 25.8475 20.1161 26.1069L14.7289 31.6706C14.0335 32.3661 14.0335 33.5859 14.7289 34.2814L16.6387 36.1912C16.4676 36.5389 16.291 37.2344 16.1199 37.9298H13.1614C12.1182 37.9298 11.2516 38.8019 11.2516 39.8451V47.4953C11.2516 48.5385 12.1182 49.4106 13.1614 49.4106H16.1199C16.291 50.106 16.4676 50.6249 16.6387 51.1492L14.7289 53.2356H5.85899C4.81579 53.2356 3.94365 52.3635 3.94365 51.1492V18.8045H60.8119ZM34.202 26.278V28.541C34.202 29.4131 34.7264 30.1086 35.593 30.2797C36.6362 30.6274 38.0271 31.1518 39.0703 31.8473C39.3297 32.035 39.6333 32.1122 39.9479 32.1122C40.4888 32.1122 41.0684 31.8914 41.5044 31.6706L43.2486 29.9319L45.8539 32.5427L44.1152 34.2814C43.4197 34.9769 43.4197 35.8435 43.9441 36.7155C44.4629 37.7587 44.9873 38.8019 45.335 40.1929C45.6828 41.0594 46.2016 41.5838 47.0737 41.5838H49.5078V45.4089H47.0737C46.2016 45.4089 45.6828 45.9277 45.335 46.7998C45.1584 48.0196 44.4629 49.2339 43.9441 50.2771C43.4197 50.9726 43.5964 52.0158 44.1152 52.7113L45.8539 54.45L43.2486 57.0607L41.5044 55.3221C41.1346 54.9467 40.7096 54.7756 40.268 54.7756C39.8817 54.7756 39.4787 54.9025 39.0703 55.1454C38.0271 55.8409 36.9839 56.1886 35.593 56.5364C34.7264 56.8841 34.202 57.4085 34.202 58.4517V60.7092H30.377V58.4517C30.377 57.4085 29.8581 56.8841 28.986 56.5364C27.7717 56.3653 26.5519 55.6698 25.5087 55.1454C25.2548 54.9522 24.9512 54.8805 24.6366 54.8805C24.0957 54.8805 23.5161 55.1013 23.0746 55.3221L21.3359 57.0607L18.7251 54.45L20.4638 52.7113C21.1593 52.0158 21.1593 51.1492 20.6404 50.2771C19.945 49.2339 19.5972 48.1908 19.0729 46.7998C18.9017 45.9277 18.2063 45.4089 17.3342 45.4089H15.0766V41.5838H17.3342C18.2063 41.5838 18.9017 41.0594 19.0729 40.1929C19.4206 38.973 19.945 37.7587 20.6404 36.7155C21.1593 36.0201 20.8115 34.9769 20.4638 34.2814L18.7251 32.5427L21.3359 29.9319L23.0746 31.6706C23.4443 32.046 23.8694 32.2171 24.3164 32.2171C24.7028 32.2171 25.1057 32.0846 25.5087 31.8473C26.5519 31.1518 27.5951 30.8041 28.986 30.2797C29.8581 30.1086 30.377 29.4131 30.377 28.541V26.278H34.202ZM6.03009 0.197983C3.07711 0.197983 0.466347 2.80324 0.466347 5.76173V51.497C0.466347 54.45 3.07711 57.0607 6.03009 57.0607H16.291L20.4638 61.2335C20.7287 61.5812 21.2034 61.7523 21.7057 61.7523C22.2025 61.7523 22.7268 61.5812 23.0746 61.2335L24.9843 59.3182C25.3376 59.4949 26.033 59.666 26.7285 59.8426V62.7955C26.7285 63.8387 27.5951 64.7109 28.6383 64.7109H36.2884C37.3316 64.7109 38.2037 63.8387 38.2037 62.7955V59.8426C38.8992 59.666 39.2469 59.4949 39.9424 59.3182L41.8522 61.2335C42.1999 61.5812 42.7243 61.7523 43.2265 61.7523C43.7233 61.7523 44.2035 61.5812 44.4629 61.2335L48.6357 57.0607H59.0677C62.2028 57.0607 64.8081 54.45 64.8081 51.497V5.76173C64.8081 2.80324 62.374 0.197983 59.0677 0.197983H6.03009Z" fill="#305391"/>
</svg>
