<svg width="55" height="57" viewBox="0 0 55 57" fill="none" xmlns="http://www.w3.org/2000/svg">
<path fill-rule="evenodd" clip-rule="evenodd" d="M29.3152 4.16208V9.03469H25.8341V4.16208H29.3152ZM5.51758 9.03469C5.93287 9.03469 6.35253 9.17163 6.76777 9.5913C7.60272 10.2849 7.60272 11.5394 6.90915 12.233C6.56013 12.582 6.0742 12.7587 5.58384 12.7587C5.09792 12.7587 4.61199 12.582 4.26301 12.233C3.56501 11.5394 3.56501 10.2849 4.26301 9.5913C4.68268 9.17163 5.2393 9.03469 5.51758 9.03469ZM49.4947 9.03469C50.6079 9.03469 51.3059 9.86959 51.3059 10.9828C51.3059 11.9547 50.471 12.931 49.4947 12.931C48.6598 12.931 47.6879 11.9547 47.6879 10.9828C47.6879 9.86959 48.5228 9.03469 49.4947 9.03469ZM27.6453 12.6527C38.6407 12.6527 47.6879 21.6999 47.6879 32.8322C47.6879 43.9646 38.6407 53.0118 27.6453 53.0118C16.6499 53.0118 7.60272 43.9646 7.60272 32.8322C7.60272 21.6999 16.6499 12.6527 27.6453 12.6527ZM20.5462 0.40271C19.433 0.40271 18.7394 1.23761 18.7394 2.2139C18.7394 3.32713 19.7113 4.16208 20.5462 4.16208H22.4944V9.72825C18.7394 10.5632 15.2584 12.3744 12.4753 14.7378L10.9424 13.2093C12.0556 11.1198 11.6404 8.75635 9.97052 6.94517C8.92355 5.90258 7.53203 5.38133 6.10514 5.38133C4.68268 5.38133 3.22042 5.90258 2.03655 6.94517C-0.0529736 9.03469 -0.0529736 12.5113 2.03655 14.7378C3.14978 15.8554 4.5413 16.412 5.93287 16.412C6.76777 16.412 7.46577 16.1337 8.30067 15.8554L9.97052 17.3839C6.48948 21.5585 4.12606 26.9878 4.12606 32.8322C4.12606 45.9171 14.8387 56.4928 27.7823 56.4928C40.8671 56.4928 51.4429 45.9171 51.4429 32.8322C51.4429 26.9878 49.3578 21.5585 45.7354 17.3839L47.2683 15.8554C47.8249 16.1337 48.6598 16.412 49.4947 16.412C52.5561 16.412 54.9239 13.9029 54.9239 10.8414C54.9239 7.78007 52.5561 5.41665 49.4947 5.41665C46.5747 5.41665 44.2068 7.78007 44.2068 10.8414C44.2068 11.6764 44.3438 12.3744 44.6221 13.2093L43.0936 14.7378C40.3105 12.3744 36.8295 10.5632 33.2114 9.72825V4.16208H35.1596C36.1359 4.16208 36.8295 3.32713 36.8295 2.2139C36.8295 1.23761 35.9945 0.40271 35.1596 0.40271H20.5462Z" fill="#67C6CF"/>
</svg>
