<svg width="34" height="34" viewBox="0 0 34 34" fill="none" xmlns="http://www.w3.org/2000/svg">
<path fill-rule="evenodd" clip-rule="evenodd" d="M14.6972 4.16682V16.8321C14.6972 17.9453 15.5321 18.7802 16.504 18.7802H29.2885C28.3962 24.9737 22.9978 29.6386 16.6454 29.6386C9.54631 29.6386 3.7018 23.7898 3.7018 16.8321C3.7018 10.431 8.43307 5.00176 14.6972 4.16682ZM16.6454 0.548828C7.59812 0.548828 0.0838165 7.78485 0.0838165 16.8321C0.0838165 25.8793 7.46117 33.2567 16.6454 33.2567C25.6926 33.2567 33.2069 25.8793 33.2069 16.8321C33.2069 15.8602 32.2306 15.0253 31.2588 15.0253H18.3152V2.21868C18.3152 1.24678 17.4803 0.548828 16.6454 0.548828Z" fill="#67C6CF"/>
</svg>
