<svg width="55" height="55" viewBox="0 0 55 55" fill="none" xmlns="http://www.w3.org/2000/svg">
<path fill-rule="evenodd" clip-rule="evenodd" d="M40.0811 13.0427C40.9504 13.0427 41.5299 13.7694 41.5299 14.6387C41.6771 15.3608 40.9504 16.0875 40.0811 16.0875C39.6488 16.0875 39.359 15.9403 38.9221 15.7978L40.0811 13.0427ZM15.8838 7.67986C18.4916 7.67986 20.6626 9.71278 20.6626 12.3206C20.6626 14.9285 18.4916 16.9568 15.8838 16.9568C13.4185 16.9568 11.2476 14.9285 11.2476 12.3206C11.2476 9.56561 13.4185 7.67986 15.8838 7.67986ZM43.2685 25.5071C45.2969 25.5071 47.0354 26.8087 47.7622 28.6945H38.9221C39.5016 26.9559 41.0976 25.5071 43.2685 25.5071ZM51.0921 31.8818V34.922H25.0135V31.8818H51.0921ZM16.4633 20.1442C19.5035 20.2868 22.1113 23.0418 22.1113 26.0866V35.9385C20.8097 35.2118 19.3609 34.6322 17.7649 34.6322H16.1735V29.8535C16.1735 28.9842 15.4468 28.2575 14.4349 28.2575C13.5656 28.2575 12.8389 28.9842 12.8389 29.8535V36.2282C12.8389 37.0975 13.5656 37.8196 14.4349 37.8196H17.6223C19.5035 37.8196 21.3893 39.1259 21.9688 41.0116H9.94131V26.0866H10.3783C10.3783 24.4906 11.1004 22.752 12.1168 21.7356C13.4185 20.5765 14.8673 20.1442 16.4633 20.1442ZM5.59494 22.4623C6.46423 22.4623 7.33353 23.1844 7.33353 24.0537V42.603V43.1825C7.47612 43.9092 8.05565 44.199 8.78235 44.199H27.764C28.6333 44.199 29.2128 44.9211 29.2128 45.6478V50.7163H3.99896V24.0537C3.99896 23.1844 4.72565 22.4623 5.59494 22.4623ZM36.0244 38.1094C37.4733 38.3992 38.7749 39.8526 38.7749 41.4439V50.7163H32.4002V45.6478C32.4002 43.0399 30.2293 40.8644 27.764 40.8644H25.593C25.4459 39.8526 24.8663 38.9786 24.2868 38.1094H36.0244ZM43.057 0.412811C42.4314 0.412811 41.7829 0.812975 41.6771 1.45227L32.2576 23.7639C31.9678 24.4906 32.2576 25.5071 33.1269 25.7968C33.4167 25.7968 33.5592 25.9394 33.7064 25.9394C34.2859 25.9394 35.008 25.5071 35.1552 25.0701L37.763 18.9851C38.4851 19.4175 39.2118 19.5647 40.0811 19.5647C40.6607 19.5647 41.0976 19.4175 41.6771 19.4175V23.0418C38.6323 23.6213 36.3142 26.0866 35.5875 29.1268H25.1561V26.6661C25.1561 23.3315 23.4175 20.434 20.8097 18.838C22.6908 17.3891 23.7073 15.2182 23.7073 12.6104C23.7073 8.25939 20.3728 4.92939 16.0263 4.92939C11.6799 4.92939 8.20282 8.25939 8.20282 12.6104C8.20282 15.2182 9.50438 17.5363 11.2476 18.9851C10.6681 19.4175 10.3783 19.7073 9.94131 20.1442C9.65164 20.434 9.21461 20.8663 8.92485 21.3032C8.05565 20.434 6.89659 19.8544 5.44777 19.8544C2.98707 19.8544 0.811554 22.0253 0.811554 24.6378V52.8918C0.811554 53.7611 1.53825 54.4878 2.40754 54.4878H40.2283C41.0976 54.4878 41.8197 53.7611 41.8197 52.8918V42.0235C41.8197 40.7219 41.5299 39.7054 40.9504 38.5463H52.9778C53.8471 38.5463 54.5738 37.8196 54.5738 36.9503V30.5756C54.5738 29.5637 53.8471 28.837 52.8306 28.837H50.9495C50.3699 25.7968 47.9047 23.3315 44.7174 22.6048V14.6387C44.7174 12.4632 43.2685 10.7246 41.2402 10.1451L44.5748 2.46416C44.8645 1.74204 44.5748 0.725579 43.7055 0.582983C43.5077 0.463392 43.2823 0.412811 43.057 0.412811Z" fill="#67C6CF"/>
</svg>
