<svg width="66" height="65" viewBox="0 0 66 65" fill="none" xmlns="http://www.w3.org/2000/svg">
<path fill-rule="evenodd" clip-rule="evenodd" d="M59.3551 3.85387C60.3984 3.85387 61.265 4.89707 61.265 5.94026V15.3291H4.4022V5.94026C4.4022 4.89707 5.27429 3.85387 6.31753 3.85387H59.3551ZM61.265 18.983V47.6739C61.265 48.7171 60.5694 49.5836 59.3551 49.5836H56.7444C57.0921 48.3693 57.2687 46.8018 57.2687 45.2398V32.5447C57.2687 31.5125 56.2642 30.7287 55.2155 30.7287C55.0333 30.7287 54.8456 30.7508 54.658 30.806C53.4327 31.3359 52.3066 31.6118 51.2082 31.6118C48.73 31.6118 46.4228 30.2209 43.5305 27.3287C43.1828 27.0692 42.7025 26.9368 42.2279 26.9368C41.7477 26.9368 41.2675 27.0692 40.9197 27.3287C38.022 30.2264 35.7093 31.5346 33.2254 31.5346C32.1325 31.5346 31.0121 31.2807 29.7923 30.806C29.6102 30.7508 29.4225 30.7287 29.2348 30.7287C28.1861 30.7287 27.1816 31.5125 27.1816 32.5447V45.2398C27.1816 46.8018 27.3581 48.0216 27.7058 49.5836H6.31753C5.27429 49.5836 4.4022 48.7171 4.4022 47.6739V18.983H61.265ZM40.2243 32.8924V60.0212C34.6605 57.4104 30.8355 51.8467 30.8355 45.2398V34.9788C31.6799 35.1389 32.4859 35.2162 33.2641 35.2162C35.8472 35.2162 38.0882 34.3606 40.2243 32.8924ZM44.226 32.8924C46.2406 34.2337 48.4595 35.2659 51.131 35.2659C51.9203 35.2659 52.7427 35.1775 53.6148 34.9788V45.2398C53.4437 51.8467 49.7898 57.4104 44.226 60.0212V32.8924ZM6.31753 0.19986C3.35895 0.19986 0.753784 2.81063 0.753784 5.94026V47.6739C0.753784 50.6268 3.35895 53.2376 6.31753 53.2376H28.7491C29.4445 54.8052 30.3166 56.1961 31.1832 57.4104C33.794 60.8878 37.2713 63.3219 41.6152 64.5418C41.8471 64.5418 42.0789 64.6963 42.3107 64.6963C42.4266 64.6963 42.5425 64.6577 42.6584 64.5418C46.8368 63.3219 50.4852 60.8878 53.096 57.4104C53.9625 56.1961 54.8346 54.8052 55.5301 53.2376H59.3551C62.4848 53.2376 65.0955 50.6268 65.0955 47.6739V5.94026C65.0955 2.81063 62.6614 0.19986 59.3551 0.19986H6.31753Z" fill="#305391"/>
</svg>
